# xmcd
#
# Track frame offsets:
#	150
#	13695
#	27014
#	39612
#	50956
#	60588
#	74904
#	92404
#	103106
#	116360
#	129454
#	141923
#	159314
#	173139
#	183782
#	197059
#	207154
#	219564
#	231037
#	240349
#	256952
#	275558
#	290084
#	302312
#	311542
#
# Disc length: 4278 seconds
#
# Revision: 1
# Processed by: cddbd v1.5.2PL0 Copyright (c) Steve Scherf et al.
# Submitted via: audiograbber 1.83.01
#
DISCID=6610b419
DTITLE=—борник - Los 100 Mayores Exitos De Los 60's CD2
DYEAR=1900
DGENRE=
TTITLE0=Adamo - CAE LA NIEVE
TTITLE1=Los Bravos - BLACK IS BLACK
TTITLE2=Tony Dallara - SAPORE DI SALE
TTITLE3=Dinah Washington - WHAT A DIFFERENCE A DAY MAKES
TTITLE4=Iva Zanicchi - COME PRIMA
TTITLE5=The Tremeloes - SILENCE IS GOLDEN
TTITLE6=Los Payos - MARIA ISABEL
TTITLE7=Conchita Velasco - CHICA YE YE
TTITLE8=B.J.Thomas - RAINDROPS KEEP FALLING ON MY HEAD
TTITLE9=Nico Fidenco - LEGATA A UN GRANELLO DI SABBIA
TTITLE10=Petula Clark - I KNOW A PLACE
TTITLE11=Jose Feliciano - DANIEL
TTITLE12=Nicola Di Bari - LOS DIAS DEL ARCO IRIS
TTITLE13=Mina - CROSSFIRE
TTITLE14=Ben E.King - STAND BY ME
TTITLE15=Dionne Warwick - I'LL NEVER FALL IN LOVE AGAIN
TTITLE16=Adriano Celentano - NATA PER ME
TTITLE17=Mari Trini - YO NO SOY ESA
TTITLE18=Karina - EL DIA DE LOS ENAMORADOS
TTITLE19=Mungo Jerry - IN THE SUMMERTIME
TTITLE20=Los Albas - LOS EJES DE MI CARRETA
TTITLE21=Los Mustang - LOS JOVENES
TTITLE22=Sirex - SI YO TUVIERA UNA ESCOBA
TTITLE23=Los Brincos - FLAMENCO
TTITLE24=Los Idolos - NO DESPERDICIES TU AMOR
EXTD=
EXTT0=
EXTT1=
EXTT2=
EXTT3=
EXTT4=
EXTT5=
EXTT6=
EXTT7=
EXTT8=
EXTT9=
EXTT10=
EXTT11=
EXTT12=
EXTT13=
EXTT14=
EXTT15=
EXTT16=
EXTT17=
EXTT18=
EXTT19=
EXTT20=
EXTT21=
EXTT22=
EXTT23=
EXTT24=
PLAYORDER=
